<svg width="40" height="40" viewBox="0 0 40 40" fill="none" xmlns="http://www.w3.org/2000/svg">
  <rect width="40" height="40" rx="8" fill="#7C3AED"/>
  <path d="M20 10C14.477 10 10 14.477 10 20C10 25.523 14.477 30 20 30C25.523 30 30 25.523 30 20C30 14.477 25.523 10 20 10ZM13 20C13 16.134 16.134 13 20 13C23.866 13 27 16.134 27 20C27 23.866 23.866 27 20 27C16.134 27 13 23.866 13 20Z" fill="white"/>
  <path d="M20 16C21.105 16 22 15.105 22 14C22 12.895 21.105 12 20 12C18.895 12 18 12.895 18 14C18 15.105 18.895 16 20 16Z" fill="white"/>
  <path d="M20 28C21.105 28 22 27.105 22 26C22 24.895 21.105 24 20 24C18.895 24 18 24.895 18 26C18 27.105 18.895 28 20 28Z" fill="white"/>
  <path d="M14 20C14 21.105 14.895 22 16 22C17.105 22 18 21.105 18 20C18 18.895 17.105 18 16 18C14.895 18 14 18.895 14 20Z" fill="white"/>
  <path d="M26 20C26 21.105 26.895 22 28 22C29.105 22 30 21.105 30 20C30 18.895 29.105 18 28 18C26.895 18 26 18.895 26 20Z" fill="white"/>
</svg>